<svg xmlns="http://www.w3.org/2000/svg" viewBox="0 0 48 48" fill="none">
  <!-- Stack of image files -->
  <rect x="6" y="10" width="24" height="30" rx="3" fill="#a78bfa" opacity="0.3"/>
  <rect x="10" y="6" width="24" height="30" rx="3" fill="#7c3aed" opacity="0.5"/>
  <!-- Top file card -->
  <rect x="14" y="2" width="24" height="30" rx="3" fill="#7c3aed"/>
  <!-- Folded corner -->
  <path d="M32 2 L38 8 L32 8 Z" fill="#4c1d95"/>
  <path d="M32 2 L38 8 H32 V2Z" fill="#a78bfa" opacity="0.5"/>
  <!-- Image icon inside card (mountain + sun) -->
  <rect x="17" y="12" width="18" height="13" rx="1.5" fill="#ede9fe"/>
  <circle cx="21" cy="16" r="2" fill="#7c3aed" opacity="0.6"/>
  <path d="M17 25 L22 19 L26 23 L29 20 L35 25Z" fill="#7c3aed" opacity="0.5"/>
  <!-- Arrow: transform / convert -->
  <path d="M8 38 C8 34 14 34 14 38 C14 42 20 42 20 38" stroke="#7c3aed" stroke-width="2" stroke-linecap="round" fill="none"/>
  <polyline points="18,35 20,38 22,35" stroke="#7c3aed" stroke-width="2" stroke-linecap="round" stroke-linejoin="round" fill="none"/>
  <!-- Format label -->
  <rect x="26" y="34" width="16" height="9" rx="2" fill="#7c3aed"/>
  <text x="34" y="41.5" font-family="monospace" font-size="5.5" font-weight="700" fill="white" text-anchor="middle">FMT</text>
</svg>
